<?xml version="1.0" standalone="no"?>
<!DOCTYPE svg PUBLIC "-//W3C//DTD SVG 20010904//EN"
 "http://www.w3.org/TR/2001/REC-SVG-20010904/DTD/svg10.dtd">
<svg version="1.0" xmlns="http://www.w3.org/2000/svg"
 width="500.000000pt" height="500.000000pt" viewBox="0 0 500.000000 500.000000"
 preserveAspectRatio="xMidYMid meet">

<g transform="translate(0.000000,500.000000) scale(0.100000,-0.100000)"
fill="#000000" stroke="none">
<path d="M2305 4954 c-385 -40 -672 -123 -975 -281 -613 -321 -1076 -906
-1245 -1573 -63 -246 -79 -404 -72 -688 10 -397 78 -675 252 -1027 138 -279
268 -457 493 -677 380 -370 852 -603 1376 -679 131 -19 180 -21 400 -16 323 6
466 30 766 130 220 73 571 263 645 350 114 133 41 344 -131 376 -73 14 -126
-2 -229 -68 -192 -124 -377 -207 -579 -261 -683 -182 -1404 3 -1910 490 -242
234 -414 502 -516 808 -240 717 -68 1490 449 2026 178 184 341 306 546 408
879 440 1927 194 2517 -590 265 -352 421 -830 421 -1292 1 -255 -42 -447 -139
-630 -105 -197 -222 -294 -331 -277 -133 22 -306 177 -425 380 -72 124 -198
361 -198 375 0 9 28 12 108 12 208 0 365 68 505 220 99 106 167 285 167 435 0
88 -28 203 -71 293 -70 145 -226 280 -389 334 -61 21 -87 22 -425 26 -254 2
-372 0 -401 -8 -56 -16 -110 -62 -138 -119 -12 -25 -117 -275 -231 -556 -115
-280 -211 -513 -215 -518 -3 -4 -75 230 -159 520 -87 300 -163 546 -177 570
-77 133 -262 152 -369 38 -26 -27 -101 -205 -385 -914 -328 -822 -352 -885
-351 -941 1 -207 245 -307 391 -160 43 43 57 74 260 583 118 296 217 540 220
542 3 2 72 -229 154 -513 82 -285 156 -530 164 -547 26 -54 83 -105 136 -120
98 -29 169 -13 236 55 42 42 58 76 209 448 90 221 167 402 171 402 4 0 86
-145 181 -322 95 -178 190 -352 212 -388 73 -116 173 -244 254 -321 354 -338
756 -366 1071 -74 210 194 366 527 417 891 21 142 21 433 0 585 -64 487 -245
942 -513 1292 -393 514 -985 858 -1637 952 -106 15 -429 27 -510 19z m1323
-1883 c46 -23 67 -46 87 -94 45 -109 -17 -229 -135 -256 -58 -14 -590 -15
-590 -1 0 9 136 344 147 363 2 4 105 7 229 7 201 0 229 -2 262 -19z"/>
</g>
</svg>
